PathFileType	4	(X/Y/Z)	c:/Users/goper/Files/vsCode/490R/osim_files/C11/C11_Static_03.trc
DataRate	CameraRate	NumFrames	NumMarkers	Units                	OrigDataRate	OrigDataStartFrame	OrigNumFrames
120.00	120.00	10	36	mm	120.0	403	536
                Frame#	Time	LPSIS			LASIS			LTH1			LTH2			LTH3			LTH4			LLFE			LMFE			LSH1			LSH2			LSH3			LSH4			LLMAL			LMMAL			LCAL			LMTP5			LTOE			LMTP1			RPSIS			RASIS			RTH1			RTH2			RTH3			RTH4			RLFE			RMFE			RSH1			RSH2			RSH3			RSH4			RLMAL			RMMAL			RCAL			RMTP1			RTOE			RMTP5		
		X1	Y1	Z1	X2	Y2	Z2	X3	Y3	Z3	X4	Y4	Z4	X5	Y5	Z5	X6	Y6	Z6	X7	Y7	Z7	X8	Y8	Z8	X9	Y9	Z9	X10	Y10	Z10	X11	Y11	Z11	X12	Y12	Z12	X13	Y13	Z13	X14	Y14	Z14	X15	Y15	Z15	X16	Y16	Z16	X17	Y17	Z17	X18	Y18	Z18	X19	Y19	Z19	X20	Y20	Z20	X21	Y21	Z21	X22	Y22	Z22	X23	Y23	Z23	X24	Y24	Z24	X25	Y25	Z25	X26	Y26	Z26	X27	Y27	Z27	X28	Y28	Z28	X29	Y29	Z29	X30	Y30	Z30	X31	Y31	Z31	X32	Y32	Z32	X33	Y33	Z33	X34	Y34	Z34	X35	Y35	Z35	X36	Y36	Z36

403	3.35000	-370.01059	1017.68188	438.69312	-191.11243	1007.63116	373.65741	-325.87393	637.03912	295.37598	-324.57025	590.61731	289.65259	-266.45151	633.38538	281.72928	-273.78452	587.46906	281.99170	-307.20099	515.57117	278.14197	-289.44110	502.11777	386.53473	-366.11938	413.50064	265.71741	-366.64975	368.62122	261.71759	-305.68118	409.05969	253.83720	-314.24994	364.76288	252.16144	-342.81036	96.55305	290.33328	-305.87622	110.67643	381.08331	-396.97256	59.65815	349.07892	-234.50505	40.04692	247.46796	-156.75984	57.54045	309.74420	-192.44356	45.40799	359.44077	-367.83032	1029.95203	522.73035	-208.97197	997.16168	607.32288	-310.34128	651.76990	671.19678	-308.47684	607.70801	670.50482	-247.85561	646.72485	664.07147	-256.15344	604.39410	665.13812	-290.85562	518.32855	660.99097	-315.12796	489.98682	550.82135	-362.37305	414.39532	686.75311	-357.74576	368.31320	689.32288	-300.14886	412.31235	682.86456	-304.85837	365.52188	688.66125	-339.24182	98.21461	666.94794	-311.06223	105.60151	572.20648	-400.04227	59.99063	615.01678	-184.14082	49.26870	597.81842	-181.08076	62.17978	647.93384	-222.90814	39.05709	708.28192
404	3.35833	-370.09436	1017.70160	438.69162	-191.20404	1007.68152	373.79498	-325.85504	637.08313	295.37555	-324.56924	590.65198	289.64893	-266.46188	633.41925	281.75854	-273.77722	587.52478	282.02646	-307.20520	515.61499	278.15298	-289.46228	502.12732	386.60342	-366.17700	413.55368	265.71451	-366.66367	368.68753	261.70538	-305.68271	409.13773	253.87463	-314.24911	364.82211	252.17821	-342.78061	96.61951	290.33429	-305.87753	110.69376	381.09668	-396.96643	59.69041	349.11029	-234.49011	40.08353	247.49232	-156.77592	57.55070	309.78336	-192.46135	45.41650	359.49283	-367.94031	1029.95557	522.74762	-209.15161	997.15948	607.43933	-310.42892	651.77502	671.23376	-308.56543	607.71289	670.54956	-248.01804	646.68463	664.20831	-256.26382	604.38123	665.20624	-290.93970	518.33081	661.04901	-315.09988	489.99976	550.82422	-362.42609	414.40082	686.76239	-357.80103	368.31030	689.36090	-300.25677	412.27344	682.93042	-304.92941	365.48575	688.71863	-339.22708	98.22205	666.97357	-311.03912	105.65406	572.20532	-400.05896	59.98530	615.04065	-184.14539	49.45509	597.70605	-181.12759	62.16988	647.96747	-222.89383	39.08524	708.30042
405	3.36667	-370.20847	1017.68384	438.69080	-191.31091	1007.73468	373.90244	-325.90280	637.09302	295.37085	-324.57040	590.68750	289.62851	-266.48566	633.45935	281.79846	-273.80984	587.53925	282.05612	-307.22385	515.65057	278.16241	-289.52286	502.12250	386.63867	-366.19458	413.60675	265.70016	-366.69498	368.71698	261.71429	-305.69986	409.19803	253.92476	-314.24744	364.87854	252.19618	-342.77643	96.64756	290.31351	-305.86301	110.71556	381.09656	-396.93195	59.69188	349.10818	-234.47612	40.10712	247.49110	-156.77916	57.56038	309.77927	-192.45810	45.42806	359.50003	-368.09128	1029.93298	522.76019	-209.34927	997.17181	607.53308	-310.54675	651.77240	671.27118	-308.64951	607.70367	670.54578	-248.12880	646.62659	664.23944	-256.37985	604.36322	665.24280	-291.03580	518.30743	661.07721	-315.11423	490.00925	550.82092	-362.44849	414.40771	686.76984	-357.82990	368.29257	689.36414	-300.31409	412.26416	682.94952	-304.98154	365.42795	688.71588	-339.18024	98.21120	666.94727	-311.04785	105.68529	572.19800	-400.01740	60.01733	615.03998	-184.15704	49.28767	597.84052	-181.13022	62.17366	647.97601	-222.88789	39.11162	708.28448
406	3.37500	-370.29016	1017.66254	438.72794	-191.43611	1007.78455	374.04211	-325.91522	637.10376	295.38730	-324.63931	590.68140	289.67612	-266.56082	633.46588	281.83539	-273.84604	587.53625	282.08090	-307.28180	515.66418	278.18616	-289.59750	502.15738	386.66547	-366.20645	413.64792	265.70291	-366.35089	370.44379	260.38821	-305.73376	409.23862	253.97841	-314.23779	365.11920	251.80988	-342.78964	96.66273	290.30878	-305.86844	110.75616	381.07208	-396.96881	59.74592	349.08408	-234.51007	40.13317	247.46991	-156.79990	57.57548	309.76346	-192.44978	45.46338	359.47992	-368.25638	1029.93005	522.78571	-209.52007	997.22968	607.62671	-310.68127	651.80920	671.29871	-308.79703	607.72308	670.55267	-248.24342	646.67621	664.25897	-256.46362	604.38934	665.27917	-291.08765	518.37256	661.11151	-315.19925	490.00522	550.86359	-362.49109	414.41037	686.77124	-357.86334	368.33911	689.38025	-300.38162	412.29813	682.92462	-305.01993	365.47702	688.70593	-339.19421	98.26761	666.94226	-311.03531	105.70248	572.17902	-400.04718	60.12436	615.02527	-184.20343	49.45747	597.69635	-181.14357	62.20331	647.95221	-222.89064	39.14919	708.26160
407	3.38333	-370.39111	1017.60175	438.78983	-191.51677	1007.85327	374.18118	-325.98392	637.10693	295.46146	-324.69498	590.68896	289.73157	-266.62234	633.47803	281.89603	-273.88330	587.55157	282.13959	-307.34576	515.68732	278.24060	-289.62439	502.17093	386.72766	-366.26010	413.65726	265.74234	-366.73895	368.73456	261.78485	-305.77106	409.21063	254.02078	-314.29807	364.88544	252.24574	-342.80875	96.67802	290.30957	-305.85678	110.76260	381.07712	-396.99414	59.77239	349.09662	-234.49290	40.14714	247.46819	-156.79369	57.57881	309.77240	-192.48410	45.45654	359.46634	-368.41165	1029.88977	522.82410	-209.69420	997.28375	607.71484	-310.79315	651.81366	671.34961	-308.90402	607.70654	670.58344	-248.35132	646.71222	664.29578	-256.56589	604.42889	665.33337	-291.17502	518.36127	661.13214	-315.28149	490.03119	550.91504	-362.53836	414.39780	686.79932	-357.92557	368.32153	689.41595	-300.41702	412.32297	682.96686	-305.08148	365.49606	688.71667	-339.15613	98.26482	666.94623	-311.04111	105.69389	572.19714	-400.06238	60.12965	615.01215	-184.18002	49.33287	597.79810	-181.14708	62.22184	647.95886	-222.88065	39.16118	708.26117
408	3.39167	-370.50241	1017.54846	438.80679	-191.59929	1007.91461	374.34824	-326.03455	637.14435	295.52301	-324.71277	590.69452	289.80057	-266.63962	633.49658	281.97388	-273.88876	587.60107	282.21149	-307.36230	515.69019	278.31036	-289.72083	502.18250	386.74557	-365.82166	413.40112	266.01004	-366.75626	368.72641	261.78610	-305.80695	409.21222	254.03131	-314.30286	364.89511	252.26389	-342.79605	96.66714	290.31573	-305.84781	110.81086	381.07352	-396.98569	59.76700	349.07907	-234.50743	40.15681	247.47174	-156.78883	57.59953	309.75766	-192.47397	45.48102	359.45901	-368.62463	1029.87354	522.83936	-209.89101	997.34509	607.81708	-310.90356	651.83569	671.40143	-308.99246	607.74353	670.64325	-248.43970	646.78394	664.37268	-256.66278	604.46130	665.38776	-291.28748	518.37457	661.14484	-315.34439	490.05334	550.96863	-362.57571	414.40552	686.82587	-358.01147	368.32315	689.41553	-300.46774	412.35822	683.01062	-305.10635	365.53183	688.78790	-339.18338	98.28209	666.95959	-311.05588	105.69991	572.20184	-400.06409	60.10497	614.99518	-184.19501	49.48634	597.70660	-181.14932	62.23623	647.95978	-222.90382	39.16442	708.26654
409	3.40000	-370.60046	1017.47791	438.82352	-191.70552	1007.96368	374.51303	-326.04810	637.14917	295.59085	-324.73184	590.69446	289.85358	-266.63858	633.49628	282.05496	-273.89487	587.60724	282.26404	-307.40399	515.67303	278.36066	-289.82434	502.15665	386.82080	-365.86508	413.35422	266.06042	-366.76608	368.70691	261.78903	-305.82745	409.24329	254.06334	-314.31885	364.89951	252.29214	-342.77338	96.65591	290.31342	-305.86411	110.79365	381.09604	-396.98907	59.77352	349.07327	-234.46980	40.16150	247.47159	-156.76572	57.61253	309.77124	-192.49718	45.45744	359.46442	-368.81039	1029.86157	522.85132	-210.07390	997.38062	607.94128	-310.99973	651.84161	671.45105	-309.10815	607.78125	670.68561	-248.52303	646.81177	664.45667	-256.74905	604.49805	665.44574	-291.39008	518.38513	661.19098	-315.37961	490.06226	551.00903	-362.62503	414.40079	686.85419	-358.10934	368.31750	689.44940	-300.54059	412.36298	683.05951	-305.17328	365.54453	688.82001	-339.24338	98.30251	666.95337	-311.04327	105.69576	572.21204	-400.07101	60.07913	615.00287	-184.14398	49.35851	597.81128	-181.14316	62.22710	647.95532	-222.89125	39.15808	708.27246
410	3.40833	-370.70392	1017.40637	438.84283	-191.80916	1007.97021	374.63922	-326.11151	637.11011	295.64148	-324.75357	590.65021	289.90308	-266.67963	633.46680	282.13843	-273.88107	587.58942	282.35010	-307.43127	515.63892	278.42056	-291.05893	501.50500	386.31900	-365.90839	413.35349	266.06888	-366.81302	368.68857	261.80661	-305.82779	409.21524	254.09474	-314.34610	364.87457	252.31668	-342.75610	96.60780	290.31619	-305.85135	110.71756	381.09750	-396.95096	59.68957	349.09518	-234.47693	40.10604	247.47792	-156.75595	57.57266	309.77457	-192.47107	45.40178	359.46606	-369.03024	1029.82166	522.84589	-210.27557	997.33765	608.05334	-311.07831	651.81134	671.50818	-309.18448	607.73047	670.74432	-248.63750	646.76801	664.52521	-256.85892	604.44910	665.50140	-291.46127	518.33575	661.26013	-315.45032	490.00870	551.03394	-362.66418	414.35370	686.87402	-358.11957	368.25162	689.48938	-300.61661	412.27921	683.08325	-305.23547	365.47440	688.86212	-339.21786	98.21130	666.98499	-311.05203	105.66162	572.22717	-400.04019	59.97253	615.02130	-184.15186	49.29231	597.83118	-181.12767	62.18116	647.96588	-222.89055	39.09635	708.28925
411	3.41667	-370.86630	1017.34912	438.87335	-191.89609	1007.98419	374.75739	-326.15198	637.06970	295.69159	-324.80792	590.59430	289.97736	-266.73627	633.40399	282.21695	-273.91687	587.53857	282.42120	-307.50323	515.58008	278.45108	-291.27094	501.28375	386.36948	-366.36926	413.52020	265.86993	-366.85400	368.64706	261.84808	-305.89075	409.16925	254.16411	-314.36044	364.82043	252.36147	-342.77850	96.56382	290.33514	-305.87100	110.61358	381.11441	-396.95056	59.61917	349.15170	-234.49136	40.01651	247.51163	-156.76994	57.49705	309.80197	-192.47540	45.33626	359.48981	-369.22525	1029.76404	522.82404	-210.54820	997.23785	608.16370	-311.21381	651.72168	671.58441	-309.27826	607.64801	670.82080	-248.81406	646.68701	664.61133	-257.01413	604.38739	665.59137	-291.54401	518.24609	661.33337	-315.52118	489.97107	551.05328	-362.72647	414.25931	686.91357	-358.21951	368.14285	689.50775	-300.77258	412.14035	683.15546	-305.34106	365.38589	688.91687	-339.20016	98.10796	667.03229	-311.05594	105.60493	572.22687	-400.02942	59.91568	615.11731	-184.15675	49.22257	597.86633	-181.15117	62.09806	647.98309	-222.91711	39.02205	708.30261
412	3.42500	-371.02615	1017.29156	438.87137	-191.97647	1008.02649	374.85883	-326.22266	637.04828	295.76123	-324.89410	590.55927	290.04236	-266.78217	633.39459	282.30286	-273.94153	587.54340	282.51590	-307.58005	515.54303	278.52493	-291.32712	501.24741	386.42737	-366.42807	413.50150	265.91376	-366.87497	368.62445	261.91718	-305.88614	409.18613	254.24667	-314.40994	364.78674	252.40160	-342.78830	96.52210	290.33472	-305.90714	110.58135	381.11569	-396.97702	59.59650	349.16058	-234.52287	39.99267	247.51952	-156.78664	57.49217	309.79172	-192.47450	45.33110	359.50171	-369.41342	1029.70850	522.82806	-210.75674	997.24847	608.25275	-311.35669	651.66321	671.63208	-309.42780	607.61938	670.87213	-248.97765	646.69116	664.66272	-257.16382	604.37262	665.63989	-291.65430	518.20612	661.37830	-315.61102	489.93619	551.07849	-362.78577	414.20123	686.92285	-358.31488	368.08633	689.53021	-300.88184	412.10190	683.18494	-305.39441	365.39560	688.93994	-339.23019	98.06848	667.01886	-311.07501	105.58797	572.22821	-400.04529	59.89815	615.10962	-184.17252	49.41494	597.70563	-181.15944	62.09356	647.98993	-222.93782	38.98952	708.30383
